<svg width="12" height="12" viewBox="0 0 12 12" fill="none" xmlns="http://www.w3.org/2000/svg">
<g clip-path="url(#clip0_2_643)">
<path d="M11 6C11 8.7615 8.7615 11 6 11C3.2385 11 1 8.7615 1 6C1 3.2385 3.2385 1 6 1C8.7615 1 11 3.2385 11 6Z" stroke="#FE4A4C" stroke-width="0.75"/>
<path d="M9.5 9.5L8.75 8.75M9.5 2.5L8.75 3.25M2.5 9.5L3.25 8.75M2.5 2.5L3.25 3.25M1 6H2M10 6H11M6 2V1" stroke="#FE4A4C" stroke-width="0.75" stroke-linecap="round"/>
<path d="M5.06438 7.18588C4.92508 7.04658 4.81458 6.8812 4.73919 6.6992C4.6638 6.5172 4.625 6.32213 4.625 6.12513C4.625 5.92813 4.6638 5.73306 4.73919 5.55105C4.81458 5.36905 4.92508 5.20368 5.06438 5.06438C5.20368 4.92508 5.36905 4.81458 5.55105 4.73919C5.73306 4.6638 5.92813 4.625 6.12513 4.625C6.32213 4.625 6.5172 4.6638 6.6992 4.73919C6.8812 4.81458 7.04658 4.92508 7.18588 5.06438C7.40888 5.28738 7.56438 5.74988 7.67138 6.23738C7.83188 6.96688 7.91238 7.33138 7.62188 7.62238C7.33188 7.91238 6.96688 7.83238 6.23738 7.67138C5.74988 7.56438 5.28738 7.40888 5.06438 7.18588Z" stroke="#FE4A4C" stroke-width="0.75"/>
</g>
<defs>
<clipPath id="clip0_2_643">
<rect width="12" height="12" fill="white"/>
</clipPath>
</defs>
</svg>
